<svg width="16" height="16" viewBox="0 0 16 16" fill="none" xmlns="http://www.w3.org/2000/svg">
<g id="UI icon/growth/filled">
<path id="Vector 606 (Stroke)" fill-rule="evenodd" clip-rule="evenodd" d="M2.00001 1.33325C2.3682 1.33325 2.66668 1.63173 2.66668 1.99992V12.6666C2.66668 13.0348 2.96515 13.3333 3.33334 13.3333H14C14.3682 13.3333 14.6667 13.6317 14.6667 13.9999C14.6667 14.3681 14.3682 14.6666 14 14.6666H3.33334C2.22877 14.6666 1.33334 13.7712 1.33334 12.6666V1.99992C1.33334 1.63173 1.63182 1.33325 2.00001 1.33325Z" fill="#1C1C1E"/>
<path id="Union" d="M11.3333 4.33337C10.9651 4.33337 10.6667 4.63185 10.6667 5.00004C10.6667 5.36823 10.9651 5.66671 11.3333 5.66671H12.3905L9.66667 8.39056L7.94281 6.66671C7.42211 6.14601 6.57789 6.14601 6.05719 6.66671L4.19526 8.52864C3.93491 8.78899 3.93491 9.2111 4.19526 9.47145C4.45561 9.7318 4.87772 9.7318 5.13807 9.47145L7 7.60952L8.72386 9.33337C9.24456 9.85407 10.0888 9.85407 10.6095 9.33337L13.3333 6.60952V7.66671C13.3333 8.0349 13.6318 8.33337 14 8.33337C14.3682 8.33337 14.6667 8.0349 14.6667 7.66671V5.00004C14.6667 4.63185 14.3682 4.33337 14 4.33337H11.3333Z" fill="#1C1C1E"/>
</g>
</svg>
