<svg width="162" height="48" viewBox="0 0 162 48" fill="none" xmlns="http://www.w3.org/2000/svg">
<g id="Google Play" clip-path="url(#clip0_2505_4681)">
<path id="Vector" d="M156 48.0001H6.00001C2.70001 48.0001 0 45.3001 0 42.0001V6.00001C0 2.70001 2.70001 0 6.00001 0H156C159.301 0 162 2.70001 162 6.00001V42.0001C162 45.3001 159.301 48.0001 156 48.0001Z" fill="black"/>
<path id="Vector_2" d="M156 0H6.00001C2.70001 0 0 2.70001 0 6.00001V42.0001C0 45.3001 2.70001 48.0001 6.00001 48.0001H156C159.301 48.0001 162 45.3001 162 42.0001V6.00001C162 2.70001 159.301 0 156 0ZM156 0.959998C158.78 0.959998 161.04 3.22128 161.04 6.00001V42.0001C161.04 44.7793 158.78 47.0406 156 47.0406H6.00001C3.22128 47.0406 0.959999 44.7793 0.959999 42.0001V6.00001C0.959999 3.22128 3.22128 0.959998 6.00001 0.959998H156Z" fill="black"/>
<path id="Vector_3" d="M56.9022 12.292C56.9022 13.2973 56.6044 14.098 56.0082 14.6953C55.3309 15.4054 54.4482 15.7607 53.363 15.7607C52.3238 15.7607 51.4402 15.4007 50.7136 14.6798C49.9857 13.9593 49.6225 13.0659 49.6225 12C49.6225 10.9335 49.9857 10.0405 50.7136 9.31961C51.4402 8.59912 52.3238 8.23864 53.363 8.23864C53.8787 8.23864 54.3723 8.33944 54.841 8.54056C55.3098 8.74217 55.6857 9.00977 55.9669 9.34493L55.3341 9.97822C54.8574 9.40864 54.2012 9.12413 53.363 9.12413C52.6051 9.12413 51.9498 9.3904 51.3967 9.92332C50.8434 10.4568 50.567 11.1486 50.567 12C50.567 12.8512 50.8434 13.5431 51.3967 14.0765C51.9498 14.6095 52.6051 14.8757 53.363 14.8757C54.167 14.8757 54.8373 14.6081 55.374 14.0719C55.7223 13.7226 55.9238 13.237 55.9777 12.6135H53.363V11.7486H56.8519C56.8857 11.9367 56.9022 12.1172 56.9022 12.292Z" fill="white"/>
<path id="Vector_4" d="M56.9022 12.2921H56.7822C56.7812 13.2745 56.4943 14.0376 55.9234 14.6105L55.9221 14.6115L55.9216 14.6125C55.2658 15.2981 54.4229 15.6394 53.363 15.6408C52.3516 15.6394 51.505 15.2944 50.7981 14.595C50.0926 13.8942 49.7438 13.0387 49.7425 12.0001C49.7438 10.9608 50.0926 10.1058 50.7981 9.4055C51.505 8.70567 52.3516 8.36019 53.363 8.35874C53.8632 8.35874 54.3395 8.45631 54.7936 8.65082C55.2484 8.84678 55.6075 9.10359 55.8751 9.42242L55.9671 9.34503L55.8823 9.26019L55.2493 9.89391L55.3341 9.97831L55.4266 9.90147C54.9277 9.30374 54.2275 9.00242 53.363 9.00422C52.577 9.00327 51.8856 9.28407 51.3137 9.83726C50.7362 10.3923 50.4461 11.1229 50.447 12.0001C50.4461 12.8771 50.7362 13.6078 51.3137 14.1628C51.8856 14.716 52.577 14.9968 53.363 14.9959C54.1937 14.9973 54.9016 14.7155 55.4588 14.1568C55.8311 13.7836 56.0421 13.2667 56.0973 12.6239L56.1086 12.4936H53.483V11.8687H56.8521V11.7487L56.7339 11.7698C56.7668 11.9518 56.7822 12.1247 56.7822 12.2921H56.9022H57.0222C57.0222 12.1097 57.0052 11.9223 56.9702 11.7273L56.9524 11.6287H53.243V12.6136V12.7336H55.9777V12.6136L55.8582 12.6033C55.8053 13.2071 55.613 13.6617 55.2892 13.9871C54.7735 14.5008 54.1408 14.7544 53.363 14.7558C52.6332 14.7549 52.014 14.5036 51.4801 13.9904C50.9514 13.4789 50.6884 12.826 50.687 12.0001C50.6884 11.1741 50.9514 10.5211 51.4801 10.0097C52.014 9.49646 52.6332 9.24518 53.363 9.24423C54.1745 9.24615 54.7872 9.51422 55.2424 10.0557L55.3267 10.156L56.0519 9.42986L56.1297 9.3521L56.0588 9.26811C55.764 8.91663 55.3712 8.63762 54.8884 8.43051C54.4046 8.22278 53.8942 8.11875 53.363 8.11875C52.2962 8.11778 51.3756 8.49279 50.6288 9.23486C49.8793 9.9755 49.5016 10.9064 49.5025 12.0001C49.5016 13.0931 49.8793 14.0245 50.6293 14.7656C51.3756 15.5072 52.2962 15.8818 53.363 15.8808C54.474 15.8818 55.3956 15.5128 56.095 14.7783L56.0082 14.6954L56.093 14.7802C56.7147 14.1591 57.023 13.32 57.0222 12.2921H56.9022Z" fill="white"/>
<path id="Vector_5" d="M62.4334 9.28454H59.1545V11.5674H62.1115V12.4326H59.1545V14.7155H62.4334V15.6H58.2301V8.40002H62.4334V9.28454Z" fill="white"/>
<path id="Vector_6" d="M62.4334 9.28451V9.16451H59.0345V11.6874H61.9914V12.3122L59.0345 12.3126V14.8355H62.3134V15.48H58.3501V8.52H62.3134V9.28451H62.4334H62.5534V8.39999V8.27999H58.1101V15.72H62.5534V14.7155V14.5955H59.2745V12.5526H62.2314V11.5674V11.4474H59.2745V9.40452H62.5534V9.28451H62.4334Z" fill="white"/>
<path id="Vector_7" d="M66.3349 15.6H65.409V9.28454H63.398V8.40002H68.3458V9.28454H66.3349V15.6Z" fill="white"/>
<path id="Vector_8" d="M66.3349 15.6V15.48H65.529V9.16451H63.518V8.52H68.2258V9.16451H66.2149V15.6H66.3349H66.4549V9.40452H68.4658V8.39999V8.27999H63.278V9.28451V9.40452H65.2891V15.72H66.3349H66.4549V15.6H66.3349Z" fill="white"/>
<path id="Vector_9" d="M71.9256 15.6V8.40002H72.8505V15.6H71.9256Z" fill="white"/>
<path id="Vector_10" d="M71.9257 15.6H72.0457V8.52H72.7305V15.48H71.9257V15.6V15.72H72.8505H72.9705V8.27999H71.9257H71.8057V15.72H71.9257V15.6Z" fill="white"/>
<path id="Vector_11" d="M76.9543 15.6H76.0285V9.28454H74.0177V8.40002H78.9653V9.28454H76.9543V15.6Z" fill="white"/>
<path id="Vector_12" d="M76.9543 15.6V15.48H76.1486V9.16451H74.1377V8.52H78.8453V9.16451H76.8343V15.6H76.9543H77.0743V9.40452H79.0853V8.39999V8.27999H73.8977V9.28451V9.40452H75.9085V15.72H76.9543H77.0743V15.6H76.9543Z" fill="white"/>
<path id="Vector_13" d="M83.7353 14.0667C84.2682 14.6063 84.9203 14.8757 85.6914 14.8757C86.4625 14.8757 87.115 14.6063 87.647 14.0667C88.1805 13.5272 88.4477 12.8376 88.4477 12C88.4477 11.1623 88.1805 10.4727 87.647 9.93319C87.115 9.39365 86.4625 9.12413 85.6914 9.12413C84.9203 9.12413 84.2682 9.39365 83.7353 9.93319C83.2032 10.4727 82.9361 11.1623 82.9361 12C82.9361 12.8376 83.2032 13.5272 83.7353 14.0667ZM88.3314 14.6695C87.6235 15.3974 86.7432 15.7607 85.6914 15.7607C84.6386 15.7607 83.7587 15.3974 83.0524 14.6695C82.344 13.9423 81.9916 13.0523 81.9916 12C81.9916 10.9475 82.344 10.0574 83.0524 9.3304C83.7587 8.60236 84.6386 8.23864 85.6914 8.23864C86.7377 8.23864 87.6157 8.60428 88.3267 9.33509C89.0369 10.0659 89.3922 10.9542 89.3922 12C89.3922 13.0523 89.0378 13.9423 88.3314 14.6695Z" fill="white"/>
<path id="Vector_14" d="M83.7354 14.0668L83.65 14.1512C84.2027 14.7123 84.8922 14.9973 85.6915 14.9959C86.4902 14.9973 87.1807 14.7123 87.7325 14.1512C88.2887 13.5896 88.5686 12.863 88.5677 12.0001C88.5686 11.1371 88.2887 10.4105 87.7325 9.84891C87.1807 9.28779 86.4902 9.00279 85.6915 9.00422C84.8922 9.00279 84.2027 9.28779 83.65 9.84891C83.095 10.4105 82.8147 11.1371 82.8161 12.0001C82.8147 12.863 83.095 13.5896 83.65 14.1512L83.7354 14.0668L83.8207 13.9824C83.3117 13.4644 83.0571 12.8128 83.0561 12.0001C83.0571 11.1872 83.3117 10.5357 83.8207 10.0176C84.3343 9.49971 84.9479 9.24567 85.6915 9.24423C86.4344 9.24567 87.0494 9.49971 87.5618 10.0176C88.0717 10.5357 88.3263 11.1872 88.3273 12.0001C88.3263 12.8128 88.0717 13.4644 87.5618 13.9824C87.0494 14.5003 86.4344 14.7544 85.6915 14.7558C84.9479 14.7544 84.3343 14.5003 83.8207 13.9824L83.7354 14.0668ZM88.3314 14.6696L88.2457 14.5861C87.5576 15.2912 86.7161 15.6394 85.6915 15.6408C84.6663 15.6394 83.8248 15.2912 83.1381 14.5861C82.4515 13.8787 82.1126 13.0257 82.1116 12.0001C82.1126 10.9744 82.4515 10.1213 83.1381 9.4139C83.8248 8.7089 84.6663 8.36018 85.6915 8.35874C86.7096 8.36018 87.549 8.71034 88.241 9.41907C88.93 10.1297 89.2708 10.9815 89.2723 12.0001C89.2708 13.0257 88.931 13.8787 88.2457 14.5861L88.3314 14.6696L88.4178 14.753C89.1452 14.0059 89.5131 13.079 89.5123 12.0001C89.5131 10.9271 89.1438 10.0022 88.4129 9.25179C87.6818 8.49843 86.7658 8.11742 85.6915 8.11875C84.6114 8.11742 83.6928 8.49662 82.9661 9.2471C82.2372 9.99467 81.8707 10.921 81.8716 12.0001C81.8707 13.079 82.2372 14.0059 82.9661 14.7535C83.6928 15.5039 84.6114 15.8818 85.6915 15.8808C86.771 15.8818 87.6897 15.5034 88.4178 14.753L88.3314 14.6696Z" fill="white"/>
<path id="Vector_15" d="M90.6907 15.6V8.40002H91.8167L95.3159 14.0011H95.3557L95.3159 12.6136V8.40002H96.2417V15.6H95.276L91.6151 9.72746H91.5752L91.6151 11.1155V15.6H90.6907Z" fill="white"/>
<path id="Vector_16" d="M90.6907 15.6H90.8107V8.52H91.75L95.2493 14.1211H95.3557H95.4789L95.4358 12.6117V8.52H96.1216V15.48H95.3426L91.6816 9.60744H91.5752H91.452L91.495 11.1174V15.48H90.6907V15.6V15.72H91.615H91.735V11.1136L91.6952 9.7242L91.5752 9.72744V9.84743H91.615V9.72744L91.5133 9.79127L95.2094 15.72H96.2416H96.3616V8.27999H95.3158H95.1958V12.615L95.2357 14.0044L95.3557 14.0011V13.8811H95.3158V14.0011L95.4176 13.9374L91.8831 8.27999H90.6907H90.5707V15.72H90.6907V15.6Z" fill="white"/>
<path id="Vector_17" d="M128.323 36H130.563V20.9986H128.323V36ZM148.492 26.4025L145.925 32.9063H145.849L143.184 26.4025H140.772L144.767 35.4928L142.49 40.5493H144.826L150.982 26.4025H148.492ZM135.794 34.2962C135.059 34.2962 134.037 33.9296 134.037 33.0221C134.037 31.8642 135.311 31.4203 136.411 31.4203C137.396 31.4203 137.858 31.6327 138.456 31.9224C138.282 33.3119 137.086 34.2962 135.794 34.2962ZM136.064 26.0742C134.442 26.0742 132.763 26.7886 132.069 28.3712L134.056 29.2009C134.481 28.3712 135.272 28.1007 136.102 28.1007C137.26 28.1007 138.437 28.7959 138.456 30.031V30.1852C138.051 29.9536 137.183 29.6063 136.121 29.6063C133.98 29.6063 131.798 30.7833 131.798 32.9836C131.798 34.9909 133.554 36.2841 135.522 36.2841C137.029 36.2841 137.858 35.6086 138.379 34.8174H138.456V35.9752H140.618V30.2236C140.618 27.5607 138.631 26.0742 136.064 26.0742ZM122.225 28.2287H119.04V23.0865H122.225C123.899 23.0865 124.849 24.4725 124.849 25.6575C124.849 26.82 123.899 28.2287 122.225 28.2287ZM122.168 20.9986H116.802V36H119.04V30.3164H122.168C124.649 30.3164 127.088 28.5197 127.088 25.6575C127.088 22.7953 124.649 20.9986 122.168 20.9986ZM92.9102 34.299C91.3632 34.299 90.0681 33.0038 90.0681 31.2249C90.0681 29.4273 91.3632 28.1125 92.9102 28.1125C94.4374 28.1125 95.636 29.4273 95.636 31.2249C95.636 33.0038 94.4374 34.299 92.9102 34.299ZM95.4813 27.2424H95.4039C94.9014 26.6433 93.9344 26.102 92.7167 26.102C90.1647 26.102 87.8256 28.3444 87.8256 31.2249C87.8256 34.0862 90.1647 36.3095 92.7167 36.3095C93.9344 36.3095 94.9014 35.768 95.4039 35.1497H95.4813V35.8843C95.4813 37.8372 94.4374 38.8811 92.7556 38.8811C91.3829 38.8811 90.5323 37.8948 90.1839 37.0636L88.2316 37.8756C88.7922 39.2288 90.281 40.8915 92.7556 40.8915C95.3847 40.8915 97.608 39.3446 97.608 35.5749V26.4113H95.4813V27.2424ZM99.1544 36H101.397V20.9981H99.1544V36ZM104.703 31.051C104.645 29.0789 106.23 28.0739 107.371 28.0739C108.261 28.0739 109.014 28.5183 109.266 29.1568L104.703 31.051ZM111.662 29.3499C111.237 28.209 109.942 26.102 107.294 26.102C104.664 26.102 102.48 28.1706 102.48 31.2057C102.48 34.067 104.645 36.3095 107.545 36.3095C109.885 36.3095 111.237 34.8788 111.798 34.0476L110.058 32.8875C109.479 33.7383 108.686 34.299 107.545 34.299C106.404 34.299 105.592 33.7769 105.07 32.7525L111.895 29.9297L111.662 29.3499ZM57.2926 27.668V29.8331H62.4736C62.319 31.051 61.913 31.9402 61.2944 32.5589C60.5406 33.3132 59.3612 34.1443 57.2926 34.1443C54.1027 34.1443 51.609 31.5731 51.609 28.3833C51.609 25.1934 54.1027 22.6219 57.2926 22.6219C59.0133 22.6219 60.2697 23.2987 61.1977 24.1687L62.725 22.6416C61.4298 21.4041 59.709 20.4568 57.2926 20.4568C52.9233 20.4568 49.2502 24.0141 49.2502 28.3833C49.2502 32.7525 52.9233 36.3095 57.2926 36.3095C59.6514 36.3095 61.4298 35.5365 62.8216 34.0862C64.2522 32.6555 64.697 30.6451 64.697 29.0213C64.697 28.5183 64.6585 28.0547 64.5807 27.668H57.2926ZM70.5874 34.299C69.0404 34.299 67.7064 33.023 67.7064 31.2057C67.7064 29.3691 69.0404 28.1125 70.5874 28.1125C72.1337 28.1125 73.4677 29.3691 73.4677 31.2057C73.4677 33.023 72.1337 34.299 70.5874 34.299ZM70.5874 26.102C67.7645 26.102 65.4638 28.2479 65.4638 31.2057C65.4638 34.1443 67.7645 36.3095 70.5874 36.3095C73.4097 36.3095 75.7103 34.1443 75.7103 31.2057C75.7103 28.2479 73.4097 26.102 70.5874 26.102ZM81.7632 34.299C80.2169 34.299 78.8828 33.023 78.8828 31.2057C78.8828 29.3691 80.2169 28.1125 81.7632 28.1125C83.3097 28.1125 84.6438 29.3691 84.6438 31.2057C84.6438 33.023 83.3097 34.299 81.7632 34.299ZM81.7632 26.102C78.9405 26.102 76.6403 28.2479 76.6403 31.2057C76.6403 34.1443 78.9405 36.3095 81.7632 36.3095C84.5857 36.3095 86.8863 34.1443 86.8863 31.2057C86.8863 28.2479 84.5857 26.102 81.7632 26.102Z" fill="white"/>
<path id="Vector_18" d="M12.6118 38.8674L12.5226 38.7821C12.1735 38.4126 11.9673 37.8389 11.9673 37.096V37.2709V10.7316V10.9073C11.9673 10.1028 12.2077 9.49688 12.6104 9.13351L27.4782 24.0009L12.6118 38.8674Z" fill="url(#paint0_linear_2505_4681)"/>
<path id="Vector_19" d="M32.4348 28.9584L27.4781 24.0009L32.4343 19.0443L38.4179 22.4437C39.1778 22.8754 39.6043 23.4319 39.6757 24.0004C39.6757 24.0009 39.6757 24.0019 39.6757 24.0027C39.6043 24.5699 39.1778 25.1269 38.4179 25.5586L32.4348 28.9584Z" fill="url(#paint1_linear_2505_4681)"/>
<path id="Vector_20" d="M13.6721 39.2578C13.2568 39.2582 12.8944 39.1228 12.6118 38.8678L27.4781 24.001L32.4348 28.9584L15.0165 38.8552C14.5346 39.1285 14.0779 39.2578 13.6721 39.2578ZM12.6076 39.0404C12.5812 39.0165 12.5555 38.9912 12.5302 38.9649L12.6076 39.0404Z" fill="url(#paint2_linear_2505_4681)"/>
<path id="Vector_21" d="M27.4782 24.0009L12.6104 9.13348C12.893 8.87896 13.2549 8.74396 13.6697 8.74396C14.0766 8.74396 14.5336 8.87379 15.0165 9.14752L32.4343 19.0443L27.4782 24.0009ZM15.0165 8.97231C14.5336 8.69847 14.0766 8.56863 13.6697 8.56863C13.6678 8.56863 13.6665 8.56863 13.6646 8.56863C13.667 8.56863 13.6687 8.56863 13.6716 8.56863C14.0777 8.56863 14.5341 8.69847 15.0165 8.97231Z" fill="url(#paint3_linear_2505_4681)"/>
<path id="Vector_22" d="M12.6114 39.0436L12.6076 39.0404C12.6089 39.0413 12.6103 39.0426 12.6114 39.0436ZM12.5303 38.9648L12.5226 38.9573C12.5255 38.9601 12.5278 38.9625 12.5303 38.9648Z" fill="black"/>
<path id="Vector_23" d="M13.6726 39.4336C13.2573 39.4336 12.8944 39.2981 12.6119 39.0432C12.6109 39.0423 12.6089 39.0414 12.6076 39.0404L12.5303 38.9649C12.5278 38.9625 12.5255 38.9598 12.5226 38.9569L12.6119 38.8678C12.8944 39.1228 13.2568 39.2582 13.6721 39.2578C14.078 39.2578 14.5345 39.1285 15.0165 38.8552L32.4348 28.9585L32.5464 29.07L32.4333 29.1343L15.0165 39.0305C14.5773 39.2794 14.1596 39.4093 13.7823 39.4308C13.7452 39.4326 13.7086 39.4336 13.6726 39.4336Z" fill="url(#paint4_linear_2505_4681)"/>
<path id="Vector_24" d="M12.5226 38.957C12.1735 38.5875 11.9673 38.0143 11.9673 37.2709V37.0961C11.9673 37.839 12.1735 38.4127 12.5226 38.7822L12.6118 38.8675L12.5226 38.957Z" fill="url(#paint5_linear_2505_4681)"/>
<path id="Vector_25" d="M32.5464 29.07L32.4347 28.9584L38.4178 25.5586C39.1777 25.1269 39.6043 24.57 39.6756 24.0027C39.6756 24.211 39.6291 24.419 39.5369 24.6216C39.3507 25.0298 38.9777 25.4156 38.4178 25.7338L32.5464 29.07Z" fill="url(#paint6_linear_2505_4681)"/>
<path id="Vector_26" d="M39.6756 24.0009C39.6752 23.3732 39.2556 22.7451 38.4179 22.2688C39.2566 22.7451 39.6766 23.3732 39.6756 24.0009Z" fill="#404040"/>
<path id="Vector_27" d="M39.6756 24.0005C39.6043 23.4319 39.1777 22.8755 38.4178 22.4437L32.4342 19.0443L32.5459 18.9328L38.4178 22.2689C39.2556 22.7452 39.6751 23.3728 39.6756 24.0005Z" fill="url(#paint7_linear_2505_4681)"/>
<path id="Vector_28" d="M11.9728 10.5177C12.0422 9.28495 12.7126 8.57288 13.6609 8.56868C13.2497 8.57108 12.8917 8.70607 12.6114 8.95868L12.6079 8.96155C12.5784 8.9882 12.5504 9.0164 12.5226 9.04543C12.2077 9.37868 12.009 9.87788 11.9728 10.5177Z" fill="#404040"/>
<path id="Vector_29" d="M11.9673 10.9073V10.7321C11.9673 10.7297 11.9673 10.7277 11.9673 10.7254V10.724C11.9673 10.6579 11.9691 10.5932 11.9725 10.5305V10.5275L11.9728 10.5248V10.5192V10.5177C12.009 9.87789 12.2077 9.37869 12.5226 9.04545L12.6104 9.13353C12.2077 9.49689 11.9673 10.1029 11.9673 10.9073ZM12.6079 8.96156L12.6114 8.95821L12.6079 8.96156Z" fill="url(#paint8_linear_2505_4681)"/>
<path id="Vector_30" d="M32.4343 19.0443L15.0165 9.14753C14.5336 8.87381 14.0766 8.74396 13.6697 8.74396C13.2549 8.74396 12.893 8.87896 12.6103 9.13349L12.5226 9.0454C12.5504 9.01637 12.5785 8.98817 12.6079 8.96153C12.6089 8.96057 12.6103 8.95961 12.6114 8.95865C12.8917 8.70604 13.2497 8.57104 13.6609 8.56865C13.6618 8.56865 13.6631 8.56865 13.6646 8.56865C13.6665 8.56865 13.6678 8.56865 13.6697 8.56865C14.0766 8.56865 14.5336 8.69849 15.0165 8.97233L32.5464 18.9324L32.4343 19.0443Z" fill="url(#paint9_linear_2505_4681)"/>
</g>
<defs>
<linearGradient id="paint0_linear_2505_4681" x1="26.1598" y1="10.4516" x2="6.02079" y2="30.5906" gradientUnits="userSpaceOnUse">
<stop stop-color="#00A0FF"/>
<stop offset="0.00657445" stop-color="#00A1FF"/>
<stop offset="0.2601" stop-color="#00BEFF"/>
<stop offset="0.5122" stop-color="#00D2FF"/>
<stop offset="0.7604" stop-color="#00DFFF"/>
<stop offset="1" stop-color="#00E3FF"/>
</linearGradient>
<linearGradient id="paint1_linear_2505_4681" x1="40.6015" y1="24.0016" x2="11.5649" y2="24.0016" gradientUnits="userSpaceOnUse">
<stop stop-color="#FFE000"/>
<stop offset="0.4087" stop-color="#FFBD00"/>
<stop offset="0.7754" stop-color="#FFA500"/>
<stop offset="1" stop-color="#FF9C00"/>
</linearGradient>
<linearGradient id="paint2_linear_2505_4681" x1="29.7924" y1="26.7553" x2="2.48241" y2="54.0653" gradientUnits="userSpaceOnUse">
<stop stop-color="#FF3A44"/>
<stop offset="1" stop-color="#C31162"/>
</linearGradient>
<linearGradient id="paint3_linear_2505_4681" x1="8.7568" y1="0.211338" x2="20.9519" y2="12.4064" gradientUnits="userSpaceOnUse">
<stop stop-color="#32A071"/>
<stop offset="0.0685" stop-color="#2DA771"/>
<stop offset="0.4762" stop-color="#15CF74"/>
<stop offset="0.8009" stop-color="#06E775"/>
<stop offset="1" stop-color="#00F076"/>
</linearGradient>
<linearGradient id="paint4_linear_2505_4681" x1="29.7925" y1="26.7553" x2="2.48247" y2="54.0653" gradientUnits="userSpaceOnUse">
<stop stop-color="#CC2E36"/>
<stop offset="1" stop-color="#9C0E4E"/>
</linearGradient>
<linearGradient id="paint5_linear_2505_4681" x1="26.1599" y1="10.4517" x2="6.02079" y2="30.5907" gradientUnits="userSpaceOnUse">
<stop stop-color="#008DE0"/>
<stop offset="0.00657445" stop-color="#008DE0"/>
<stop offset="0.2601" stop-color="#00A7E0"/>
<stop offset="0.5122" stop-color="#00B8E0"/>
<stop offset="0.7604" stop-color="#00C4E0"/>
<stop offset="1" stop-color="#00C7E0"/>
</linearGradient>
<linearGradient id="paint6_linear_2505_4681" x1="40.6014" y1="24.0017" x2="11.565" y2="24.0017" gradientUnits="userSpaceOnUse">
<stop stop-color="#E0C500"/>
<stop offset="0.4087" stop-color="#E0A600"/>
<stop offset="0.7754" stop-color="#E09100"/>
<stop offset="1" stop-color="#E08900"/>
</linearGradient>
<linearGradient id="paint7_linear_2505_4681" x1="40.6014" y1="24.0017" x2="11.565" y2="24.0017" gradientUnits="userSpaceOnUse">
<stop stop-color="#FFE840"/>
<stop offset="0.4087" stop-color="#FFCE40"/>
<stop offset="0.7754" stop-color="#FFBC40"/>
<stop offset="1" stop-color="#FFB540"/>
</linearGradient>
<linearGradient id="paint8_linear_2505_4681" x1="26.1598" y1="10.4516" x2="6.0208" y2="30.5906" gradientUnits="userSpaceOnUse">
<stop stop-color="#40B8FF"/>
<stop offset="0.00657445" stop-color="#40B9FF"/>
<stop offset="0.2601" stop-color="#40CEFF"/>
<stop offset="0.5122" stop-color="#40DDFF"/>
<stop offset="0.7604" stop-color="#40E7FF"/>
<stop offset="1" stop-color="#40EAFF"/>
</linearGradient>
<linearGradient id="paint9_linear_2505_4681" x1="8.7568" y1="0.211347" x2="20.9519" y2="12.4064" gradientUnits="userSpaceOnUse">
<stop stop-color="#65B895"/>
<stop offset="0.0685" stop-color="#62BD95"/>
<stop offset="0.4762" stop-color="#50DB97"/>
<stop offset="0.8009" stop-color="#44ED98"/>
<stop offset="1" stop-color="#40F498"/>
</linearGradient>
<clipPath id="clip0_2505_4681">
<rect width="162" height="48" fill="white"/>
</clipPath>
</defs>
</svg>
