<svg width="32" height="32" viewBox="0 0 32 32" fill="none" xmlns="http://www.w3.org/2000/svg">
<g opacity="0.32">
<path d="M15.7337 6.95162C12.7445 3.90512 7.88738 3.90512 4.89819 6.95162C1.92283 9.98401 1.92283 14.8902 4.89819 17.9226L14.0966 27.2973C15.1419 28.3627 16.8581 28.3627 17.9034 27.2973L27.1018 17.9226C30.0772 14.8902 30.0772 9.98401 27.1018 6.95162C24.1126 3.90512 19.2555 3.90512 16.2663 6.95162C16.1201 7.10067 15.88 7.10067 15.7337 6.95162Z" fill="#007AFF"/>
</g>
<path fill-rule="evenodd" clip-rule="evenodd" d="M13.8303 8.81925C11.8864 6.83813 8.74548 6.83813 6.80162 8.81925C4.84391 10.8145 4.84391 14.0597 6.80162 16.0549L15.0483 24.4597C15.571 24.9924 16.4291 24.9924 16.9517 24.4597L25.1984 16.0549C27.1561 14.0597 27.1561 10.8145 25.1984 8.81925C23.2545 6.83813 20.1136 6.83813 18.1697 8.81925L16.9517 10.0606C16.701 10.3162 16.358 10.4601 16 10.4601C15.642 10.4601 15.299 10.3162 15.0483 10.0606L13.8303 8.81925ZM15.7337 6.95162L16 7.22302L16.2663 6.95162C19.2555 3.90512 24.1126 3.90512 27.1018 6.95162C30.0772 9.98401 30.0772 14.8902 27.1018 17.9226L18.8552 26.3273C17.2871 27.9254 14.7129 27.9254 13.1449 26.3273L4.89819 17.9226C1.92283 14.8902 1.92283 9.98401 4.89819 6.95162C7.88738 3.90512 12.7445 3.90512 15.7337 6.95162Z" fill="#007AFF"/>
</svg>
