<svg width="18" height="18" viewBox="0 0 18 18" fill="none" xmlns="http://www.w3.org/2000/svg">
<g id="UI icon/notes/light">
<path id="Rectangle 199 (Stroke)" fill-rule="evenodd" clip-rule="evenodd" d="M14.25 8.25H6.75C6.33579 8.25 6 8.58579 6 9V12C6 12.4142 6.33579 12.75 6.75 12.75H14.25C14.6642 12.75 15 12.4142 15 12V9C15 8.58579 14.6642 8.25 14.25 8.25ZM6.75 6.75C5.50736 6.75 4.5 7.75736 4.5 9V12C4.5 13.2426 5.50736 14.25 6.75 14.25H14.25C15.4926 14.25 16.5 13.2426 16.5 12V9C16.5 7.75736 15.4926 6.75 14.25 6.75H6.75Z" fill="#1C1C1E"/>
<path id="Subtract" fill-rule="evenodd" clip-rule="evenodd" d="M3.75002 5.25H11.25C11.6642 5.25 12 5.58579 12 6V6.75H13.5V6C13.5 4.75736 12.4927 3.75 11.25 3.75H3.75002C2.50737 3.75 1.50002 4.75736 1.50002 6V9C1.50002 10.2426 2.50737 11.25 3.75002 11.25H4.50002V9.75H3.75002C3.3358 9.75 3.00002 9.41421 3.00002 9V6C3.00002 5.58579 3.3358 5.25 3.75002 5.25Z" fill="#1C1C1E"/>
<path id="Ellipse 150 (Stroke)" fill-rule="evenodd" clip-rule="evenodd" d="M10.5 12C11.3284 12 12 11.3284 12 10.5C12 9.67157 11.3284 9 10.5 9C9.67159 9 9.00002 9.67157 9.00002 10.5C9.00002 11.3284 9.67159 12 10.5 12Z" fill="#1C1C1E"/>
<path id="Ellipse 151" d="M8.25 10.5C8.25 10.9142 7.91421 11.25 7.5 11.25C7.08579 11.25 6.75 10.9142 6.75 10.5C6.75 10.0858 7.08579 9.75 7.5 9.75C7.91421 9.75 8.25 10.0858 8.25 10.5Z" fill="#1C1C1E"/>
<path id="Ellipse 152" d="M14.25 10.5C14.25 10.9142 13.9142 11.25 13.5 11.25C13.0858 11.25 12.75 10.9142 12.75 10.5C12.75 10.0858 13.0858 9.75 13.5 9.75C13.9142 9.75 14.25 10.0858 14.25 10.5Z" fill="#1C1C1E"/>
</g>
</svg>
