<svg width="128" height="40" viewBox="0 0 128 40" fill="none" xmlns="http://www.w3.org/2000/svg">
<g id="logo1 1" clip-path="url(#clip0_2505_4663)">
<g id="Layer 1">
<g id="Group">
<path id="Vector" d="M21.4141 20.4124C20.9884 19.5876 20.4894 18.8365 19.917 18.2032C19.2565 17.4374 18.4786 16.8189 17.6127 16.3328C16.0128 15.4345 14.2075 14.9926 12.1968 14.9926C9.87777 14.9926 7.7936 15.5081 5.94427 16.539C4.09494 17.57 2.6419 19.0133 1.58514 20.8837C0.52838 22.7541 0 24.9337 0 27.408C0 29.8822 0.52838 32.106 1.58514 33.9617C2.6419 35.8174 4.09494 37.2607 5.94427 38.2916C7.7936 39.3225 9.87777 39.8233 12.1968 39.8233C14.3103 39.8233 16.1449 39.3814 17.7301 38.4978C18.6988 37.9529 19.5207 37.2312 20.2399 36.3328C20.6949 35.7585 21.1058 35.1105 21.4581 34.3888C22.3534 32.5479 22.8084 30.2209 22.8084 27.408C22.8084 24.595 22.3387 22.2386 21.4141 20.4124ZM19.0804 31.4286C18.4346 32.5921 17.5833 33.4757 16.5119 34.0943C15.4404 34.7128 14.2222 35.0221 12.8719 35.0221C11.5216 35.0221 10.3034 34.7128 9.23197 34.0943C8.17521 33.4757 7.30925 32.5921 6.66346 31.4286C6.01766 30.2651 5.69476 28.9249 5.69476 27.408C5.69476 25.891 6.01766 24.5361 6.66346 23.4021C7.30925 22.268 8.17521 21.3991 9.23197 20.7658C10.3034 20.1473 11.5216 19.838 12.8719 19.838C14.2222 19.838 15.4404 20.1473 16.5119 20.7658C17.5833 21.3991 18.4346 22.268 19.0804 23.4021C19.7262 24.5361 20.0491 25.8763 20.0491 27.408C20.0491 28.9396 19.7262 30.2651 19.0804 31.4286ZM19.917 5.89102V20.9278L20.372 27.3638L20.2399 33.7997V39.514H25.6117V13.4757L19.917 5.89102Z" fill="#3A3A3A"/>
<path id="Vector_2" d="M39.878 39.9853C37.8232 39.9853 36.0179 39.6024 34.4621 38.8218C32.8917 38.056 31.6734 36.8778 30.7781 35.2872C29.8828 33.6966 29.4425 31.6937 29.4425 29.2784V15.4639H35.1373V28.5567C35.1373 30.7069 35.6363 32.3122 36.6343 33.3873C37.6324 34.4625 39.0121 34.9926 40.788 34.9926C42.1089 34.9926 43.2684 34.7128 44.2665 34.1826C45.2645 33.6377 46.0278 32.8277 46.5708 31.7379C47.1139 30.648 47.3781 29.3078 47.3781 27.7025V15.4639H53.0288V39.6613H47.6569V33.0928L48.6109 35.1252C47.8037 36.6716 46.6148 37.8645 45.0444 38.704C43.4739 39.5582 41.7567 39.9706 39.8927 39.9706L39.878 39.9853Z" fill="#3A3A3A"/>
<path id="Vector_3" d="M57.5494 39.676V6.0383H63.1561V21.0898L62.7011 27.5258L62.9212 33.9617V39.676H57.5494ZM70.8763 40C68.8655 40 67.0309 39.5582 65.4164 38.6598C63.7872 37.7761 62.5396 36.4065 61.6443 34.5508C60.749 32.7099 60.3087 30.3829 60.3087 27.57C60.3087 24.757 60.7784 22.4006 61.703 20.5744C62.6277 18.7482 63.9046 17.3932 65.4898 16.4949C67.0896 15.5965 68.8802 15.1546 70.8616 15.1546C73.21 15.1546 75.3088 15.6701 77.1435 16.701C78.9781 17.732 80.4312 19.1753 81.5026 21.0457C82.574 22.9161 83.1024 25.0957 83.1024 27.57C83.1024 30.0442 82.574 32.2533 81.5026 34.1237C80.4312 35.9794 78.9781 37.4227 77.1435 38.4536C75.3088 39.4845 73.21 40 70.8616 40H70.8763ZM70.2011 35.1988C71.5808 35.1988 72.8137 34.8896 73.8851 34.271C74.9566 33.6524 75.8078 32.7541 76.439 31.5906C77.0701 30.4271 77.393 29.0869 77.393 27.5847C77.393 26.0825 77.0701 24.7128 76.439 23.5788C75.8078 22.4448 74.9566 21.5759 73.8851 20.9573C72.8137 20.3387 71.5955 20.0295 70.2011 20.0295C68.8068 20.0295 67.6767 20.3387 66.5905 20.9573C65.5044 21.5759 64.6531 22.4595 64.022 23.5788C63.3909 24.7128 63.068 26.053 63.068 27.5847C63.068 29.1164 63.3909 30.4271 64.022 31.5906C64.6531 32.7541 65.5191 33.6377 66.5905 34.271C67.6767 34.8896 68.8802 35.1988 70.2011 35.1988Z" fill="#3A3A3A"/>
<path id="Vector_4" d="M105.573 15.3903H96.6788L91.9968 9.49927H100.891L105.573 15.3903Z" fill="#3A3A3A"/>
<path id="Vector_5" d="M127.193 40H118.108L109.903 29.4109L105.368 24.4772L103.783 22.4742H111.928V21.3255L114.512 24.2268L127.193 40Z" fill="#3A3A3A"/>
<path id="Vector_6" d="M105.104 24.2268L109.448 19.3373L117.256 9.49927H126.151L114.262 24.4772L109.712 29.4109L101.508 40H92.4224L105.104 24.2268Z" fill="#3A3A3A"/>
<path id="Vector_7" d="M86.9625 40H95.9597L128 0H119.531L86.9625 40Z" fill="#11B7B3"/>
</g>
</g>
</g>
<defs>
<clipPath id="clip0_2505_4663">
<rect width="128" height="40" fill="white"/>
</clipPath>
</defs>
</svg>
