<svg width="12" height="12" viewBox="0 0 12 12" fill="none" xmlns="http://www.w3.org/2000/svg">
<g id="UI icon/size/light">
<path id="Union" fill-rule="evenodd" clip-rule="evenodd" d="M9.952 5.01204C9.68682 5.01204 9.47185 4.79707 9.47185 4.53189V3.29034L3.42882 9.33337H4.67038C4.93555 9.33337 5.15052 9.54834 5.15052 9.81351C5.15052 10.0787 4.93555 10.2937 4.67038 10.2937H2.74979C2.21943 10.2937 1.78949 9.86372 1.78949 9.33337V7.41277C1.78949 7.1476 2.00446 6.93263 2.26964 6.93263C2.53482 6.93263 2.74979 7.1476 2.74979 7.41277V8.65434L8.79283 2.6113L7.55126 2.6113C7.28609 2.6113 7.07112 2.39633 7.07112 2.13115C7.07112 1.86597 7.28609 1.651 7.55126 1.651H9.47185C10.0022 1.651 10.4321 2.08094 10.4321 2.6113V4.53189C10.4321 4.79707 10.2172 5.01204 9.952 5.01204Z" fill="#AF52DE"/>
<path id="Vector 461 (Stroke)" fill-rule="evenodd" clip-rule="evenodd" d="M1.78949 2.6113C1.78949 2.08094 2.21943 1.651 2.74979 1.651H4.67038C4.93555 1.651 5.15052 1.86597 5.15052 2.13115C5.15052 2.39633 4.93555 2.6113 4.67038 2.6113H2.74979V4.53189C2.74979 4.79707 2.53482 5.01204 2.26964 5.01204C2.00446 5.01204 1.78949 4.79707 1.78949 4.53189V2.6113Z" fill="#AF52DE"/>
<path id="Vector 465 (Stroke)" fill-rule="evenodd" clip-rule="evenodd" d="M10.4321 9.33341C10.4321 9.86376 10.0022 10.2937 9.47185 10.2937H7.55126C7.28608 10.2937 7.07111 10.0787 7.07111 9.81355C7.07111 9.54838 7.28608 9.33341 7.55126 9.33341H9.47185V7.41281C9.47185 7.14764 9.68682 6.93267 9.952 6.93267C10.2172 6.93267 10.4321 7.14764 10.4321 7.41281V9.33341Z" fill="#AF52DE"/>
</g>
</svg>
